<?xml version="1.0"?>
<svg width="6000" height="6000" xmlns="http://www.w3.org/2000/svg" xmlns:svg="http://www.w3.org/2000/svg" xml:space="preserve">
 <g class="layer">
  <title>Layer 1</title>
  <g clip-path="url(#a)" id="svg_1" transform="matrix(11.1675 0 0 -11.1675 2924.17 3029.78)">
   <clipPath fill="#f74838" id="a" stroke="#f74838" transform="translate(5.59662 -5.68434e-14) matrix(11.1675 0 0 -11.1675 2981.08 3029.78) matrix(11.1675 0 0 -11.1675 2981.08 3029.78) matrix(11.1675 0 0 -11.1675 2981.08 3029.78)">
    <path d="m0,992.13l1683.78,0l0,-992.13l-1683.78,0l0,992.13z" fill="#f74838" id="svg_2" stroke="#f74838" stroke-linecap="round" transform="translate(-1432.41 -248.02)"/>
   </clipPath>
   <path d="m5.6,0c-0.1,0.38 -9.56,38.53 -9.56,67.63c0,29.09 9.46,67.24 9.56,67.62c0.79,3.18 0.17,6.38 -1.7,8.79a9.43,9.43 0 0 1 -2.39,2.16c0.1,0.45 0.17,0.9 0.2,1.37c0.28,3.74 -1.61,7.2 -5.05,9.26c-0.34,0.2 -34.01,20.49 -54.58,41.06c-20.57,20.57 -40.86,54.24 -41.06,54.58c-1.9,3.18 -5.11,5.08 -8.57,5.08c-0.71,0 -1.4,-0.08 -2.07,-0.23c-0.04,0.06 -0.07,0.13 -0.11,0.19c-2.26,3.38 -6.57,4.96 -10.83,3.9c-0.38,-0.1 -38.48,-9.56 -67.62,-9.56c-29.1,0 -67.25,9.46 -67.63,9.56c-4.25,1.06 -8.57,-0.52 -10.83,-3.9c-0.04,-0.06 -0.07,-0.13 -0.11,-0.19c-0.67,0.15 -1.36,0.23 -2.07,0.23c-3.46,0 -6.66,-1.9 -8.57,-5.08c-0.2,-0.34 -20.45,-33.97 -41.06,-54.58c-20.57,-20.57 -54.24,-40.85 -54.58,-41.06c-3.44,-2.06 -5.33,-5.52 -5.05,-9.26a9.62,9.62 0 0 1 0.2,-1.37a9.43,9.43 0 0 1 -2.39,-2.16c-1.87,-2.41 -2.49,-5.61 -1.7,-8.79c0.1,-0.38 9.56,-38.53 9.56,-67.62c0,-29.1 -9.46,-67.25 -9.56,-67.63c-0.79,-3.18 -0.17,-6.38 1.7,-8.78a9.43,9.43 0 0 1 2.39,-2.17a9.7,9.7 0 0 1 -0.2,-1.37c-0.28,-3.74 1.61,-7.2 5.05,-9.26c0.34,-0.2 33.97,-20.46 54.58,-41.06c20.57,-20.57 40.86,-54.24 41.06,-54.58c1.91,-3.18 5.11,-5.08 8.57,-5.08a9.48,9.48 0 0 1 2.07,0.23c0.04,-0.06 0.07,-0.13 0.12,-0.19c1.77,-2.66 4.8,-4.24 8.1,-4.24c0.89,0 1.81,0.11 2.72,0.34c0.38,0.1 38.49,9.56 67.63,9.56c29.09,0 67.24,-9.46 67.62,-9.56c4.25,-1.06 8.57,0.52 10.83,3.9c0.04,0.06 0.07,0.13 0.11,0.19a9.5,9.5 0 0 1 2.07,-0.23c3.46,0 6.67,1.9 8.57,5.08c0.21,0.34 20.49,34.01 41.06,54.58c20.57,20.57 54.24,40.86 54.58,41.06c3.44,2.06 5.33,5.53 5.06,9.26a9.51,9.51 0 0 1 -0.2,1.37a9.42,9.42 0 0 1 2.38,2.17c1.88,2.4 2.5,5.6 1.7,8.78" fill="#f74838" fill-rule="nonzero" id="svg_3" stroke="#f74838" stroke-dashoffset="0" stroke-miterlimit="4" transform="translate(193.78 -67.62)"/>
  </g>
  <g clip-path="url(#b)" id="svg_4" transform="matrix(11.1675 0 0 -11.1675 2926.63 1921.43)">
   <clipPath fill="#f74838" id="b" transform="translate(5.59662 0)">
    <path d="m0,992.13l1683.78,0l0,-992.13l-1683.78,0l0,992.13z" fill="#f74838" id="svg_5" stroke-linecap="round" transform="translate(-1432.41 -347.28)"/>
   </clipPath>
   <path d="m5.6,0c-30.53,0 -69.69,9.81 -69.69,9.81c-1.51,0.38 -2.26,-0.49 -1.67,-1.93l70.27,-169.65c0.6,-1.44 1.58,-1.44 2.17,0l70.28,169.65c0.59,1.44 -0.16,2.31 -1.67,1.93c0,0 -39.17,-9.81 -69.69,-9.81" fill="#f74838" fill-rule="nonzero" id="svg_6" stroke-dashoffset="0" stroke-miterlimit="4" transform="translate(0 76.47)"/>
  </g>
  <g clip-path="url(#c)" id="svg_7" transform="matrix(11.1675 0 0 -11.1675 2926.63 4142.21)">
   <clipPath fill="#f74838" id="c" transform="translate(5.59662 0)">
    <path d="m0,992.13l1683.78,0l0,-992.13l-1683.78,0l0,992.13z" fill="#f74838" id="svg_8" stroke-linecap="round" transform="translate(-1432.41 -148.78)"/>
   </clipPath>
   <path d="m5.6,0c-30.53,0 -69.69,-9.81 -69.69,-9.81c-1.51,-0.38 -2.26,0.49 -1.67,1.93l70.27,169.65c0.6,1.44 1.58,1.44 2.17,0l70.27,-169.65c0.6,-1.44 -0.15,-2.31 -1.66,-1.93c0,0 -39.17,9.81 -69.69,9.81" fill="#f74838" fill-rule="nonzero" id="svg_9" stroke-dashoffset="0" stroke-miterlimit="4" transform="translate(0 -76.47)"/>
  </g>
  <g clip-path="url(#d)" id="svg_10" transform="matrix(11.1675 0 0 -11.1675 1815.95 3032.09)">
   <clipPath fill="#f74838" id="d" transform="translate(5.59662 -5.68434e-14)">
    <path d="m0,992.13l1683.78,0l0,-992.13l-1683.78,0l0,992.13z" fill="#f74838" id="svg_11" stroke-linecap="round" transform="translate(-1333.16 -248.03)"/>
   </clipPath>
   <path d="m5.6,0c0,-30.53 -9.81,-69.69 -9.81,-69.69c-0.38,-1.51 0.49,-2.26 1.93,-1.67l169.65,70.28c1.44,0.59 1.44,1.57 0,2.17l-169.65,70.27c-1.44,0.59 -2.31,-0.16 -1.93,-1.67c0,0 9.81,-39.17 9.81,-69.69" fill="#f74838" fill-rule="nonzero" id="svg_12" stroke-dashoffset="0" stroke-miterlimit="4" transform="translate(-76.47 0)"/>
  </g>
  <g clip-path="url(#e)" id="svg_13" transform="matrix(11.1675 0 0 -11.1675 4036.65 3032.09)">
   <clipPath fill="#f74838" id="e" transform="translate(5.59662 -5.68434e-14)">
    <path d="m0,992.13l1683.78,0l0,-992.13l-1683.78,0l0,992.13z" fill="#f74838" id="svg_14" stroke-linecap="round" transform="translate(-1531.67 -248.03)"/>
   </clipPath>
   <path d="m5.6,0c0,-30.53 9.81,-69.69 9.81,-69.69c0.38,-1.51 -0.49,-2.26 -1.93,-1.67l-169.65,70.28c-1.44,0.59 -1.44,1.57 0,2.17l169.65,70.27c1.44,0.59 2.31,-0.16 1.93,-1.67c0,0 -9.81,-39.17 -9.81,-69.69" fill="#f74838" fill-rule="nonzero" id="svg_15" stroke-dashoffset="0" stroke-miterlimit="4" transform="translate(76.47 0)"/>
  </g>
  <g clip-path="url(#f)" id="svg_16" transform="matrix(11.1675 0 0 -11.1675 4053.32 1967.32)">
   <clipPath id="f" transform="translate(0 2.84217e-14)">
    <path d="m0,992.13l1683.78,0l0,-992.13l-1683.78,0l0,992.13z" id="svg_17" stroke-linecap="round" transform="translate(-1527.57 -343.19)"/>
   </clipPath>
   <path d="m0,0c-21.59,21.59 -42.34,56.22 -42.34,56.22c-0.8,1.34 -1.95,1.25 -2.54,-0.19l-70.27,-169.65c-0.6,-1.44 0.09,-2.13 1.53,-1.53l169.65,70.27c1.44,0.6 1.53,1.74 0.19,2.54c0,0 -34.63,20.76 -56.22,42.34" fill="#fff" fill-rule="nonzero" id="svg_18" stroke-dashoffset="0" stroke-miterlimit="4" transform="translate(29.1 29.1)"/>
  </g>
  <g clip-path="url(#g)" id="svg_19" transform="matrix(11.1675 0 0 -11.1675 1924.26 4096.37)">
   <clipPath id="g" transform="translate(0 5.68434e-14)">
    <path d="m0,992.13l1683.78,0l0,-992.13l-1683.78,0l0,992.13z" id="svg_20" stroke-linecap="round" transform="translate(-1337.26 -152.88)"/>
   </clipPath>
   <path d="m0,0c-21.59,21.59 -56.22,42.34 -56.22,42.34c-1.34,0.8 -1.25,1.95 0.19,2.54l169.65,70.27c1.44,0.6 2.13,-0.09 1.53,-1.53l-70.27,-169.65c-0.59,-1.44 -1.74,-1.53 -2.54,-0.19c0,0 -20.76,34.63 -42.34,56.22" fill="#fff" fill-rule="nonzero" id="svg_21" stroke-dashoffset="0" stroke-miterlimit="4" transform="translate(-29.1 -29.1)"/>
  </g>
  <g clip-path="url(#h)" id="svg_22" transform="matrix(11.1675 0 0 -11.1675 1861.76 2042.32)">
   <clipPath id="h" transform="translate(5.59662 0) translate(2.84217e-14 6.71594) translate(2.84217e-14 0) translate(1.42109e-14 0)">
    <path d="m0,992.13l1683.78,0l0,-992.13l-1683.78,0l0,992.13z" id="svg_23" stroke-linecap="round" transform="translate(-1337.26 -343.19)"/>
   </clipPath>
   <path d="m5.6,6.72c-21.59,-21.59 -56.22,-42.34 -56.22,-42.34c-1.34,-0.8 -1.25,-1.95 0.19,-2.54l169.65,-70.27c1.44,-0.6 2.13,0.09 1.53,1.53l-70.27,169.65c-0.6,1.44 -1.74,1.52 -2.54,0.19c0,0 -20.76,-34.63 -42.34,-56.22" fill="#fff" fill-rule="nonzero" id="svg_24" stroke-dashoffset="0" stroke-miterlimit="4" transform="translate(-29.1 29.1)"/>
  </g>
  <g clip-path="url(#i)" id="svg_25" transform="matrix(11.1675 0 0 -11.1675 2817.31 3799.37)">
   <clipPath id="i" transform="translate(5.59662 5.68434e-14) translate(2.84217e-14 6.71594) translate(-4.47729 5.59662) translate(45.8923 30.2217) translate(-9.09545 -19.1004) translate(72.7636 -49.1154)">
    <path d="m0,992.13l1683.78,0l0,-992.13l-1683.78,0l0,992.13z" id="svg_26" stroke-linecap="round" transform="translate(-1527.57 -152.88)"/>
   </clipPath>
   <path d="m110.68,-25.68c-21.59,-21.59 -42.34,-56.22 -42.34,-56.22c-0.8,-1.34 -1.95,-1.25 -2.54,0.19l-70.27,169.65c-0.6,1.44 0.09,2.13 1.53,1.53l169.65,-70.27c1.44,-0.6 1.53,-1.74 0.19,-2.54c0,0 -34.63,-20.76 -56.22,-42.34" fill="#fff" fill-rule="nonzero" id="svg_27" stroke-dashoffset="0" stroke-miterlimit="4" transform="translate(29.1 -29.1)"/>
  </g>
 </g>
</svg>